<svg width="32" height="32" viewBox="0 0 32 32" fill="none" xmlns="http://www.w3.org/2000/svg">
<g clip-path="url(#clip0_1972_8101)">
<path d="M16 32C24.8366 32 32 24.8366 32 16C32 7.16344 24.8366 0 16 0C7.16344 0 0 7.16344 0 16C0 24.8366 7.16344 32 16 32Z" fill="white"/>
<path d="M17.4926 25.4933V16.8533H20.3726L20.7992 13.4399H17.4926V11.3066C17.4926 10.3466 17.8126 9.70659 19.1992 9.70659H21.0126V6.61326C20.6926 6.61326 19.6259 6.50659 18.4526 6.50659C15.8926 6.50659 14.0792 8.10659 14.0792 10.9866V13.4399H11.1992V16.8533H14.0792V25.4933H17.4926Z" fill="#061849"/>
</g>
<defs>
<clipPath id="clip0_1972_8101">
<rect width="32" height="32" fill="white"/>
</clipPath>
</defs>
</svg>
