<svg width="32" height="32" viewBox="0 0 32 32" fill="none" xmlns="http://www.w3.org/2000/svg">
<g clip-path="url(#clip0_1972_8104)">
<path d="M16 32C24.8366 32 32 24.8366 32 16C32 7.16344 24.8366 0 16 0C7.16344 0 0 7.16344 0 16C0 24.8366 7.16344 32 16 32Z" fill="white"/>
<path d="M11.5997 23.2667H8.53307V13.4001H11.5997V23.2667ZM9.93307 12.1334C8.79974 12.1334 8.06641 11.4001 8.06641 10.4001C8.06641 9.40008 8.79974 8.66675 9.93307 8.66675C11.0664 8.66675 11.7997 9.40008 11.7997 10.4001C11.7997 11.4001 11.1331 12.1334 9.93307 12.1334ZM23.9331 23.2667H20.3997V18.1334C20.3997 16.8001 19.8664 15.8667 18.6664 15.8667C17.7331 15.8667 17.2664 16.4667 16.9997 17.0667C16.9331 17.2667 16.9331 17.6001 16.9331 17.8667V23.2001H13.4664C13.4664 23.2001 13.5331 14.1334 13.4664 13.3334H16.9331V14.8667C17.1331 14.2001 18.2664 13.2001 19.9997 13.2001C22.1997 13.2001 23.9331 14.6001 23.9331 17.6667V23.2667Z" fill="#061849"/>
</g>
<defs>
<clipPath id="clip0_1972_8104">
<rect width="32" height="32" fill="white"/>
</clipPath>
</defs>
</svg>
