<svg viewBox="0 0 130 33" fill="none" xmlns="http://www.w3.org/2000/svg">
<path d="M1.79264 32.3318C1.3172 32.3318 0.861234 32.1403 0.525052 31.7993C0.188867 31.4583 0 30.9958 0 30.5137V5.05912C0 4.57691 0.188867 4.11444 0.525052 3.77347C0.861234 3.4325 1.3172 3.24094 1.79264 3.24094H4.94052C4.96143 3.24094 4.9815 3.23251 4.99629 3.21751C5.01108 3.2025 5.01939 3.18215 5.01939 3.16094V0.695485C5.01939 0.599042 5.05717 0.50655 5.1244 0.438355C5.19164 0.37016 5.28283 0.331848 5.37792 0.331848H13.9826C14.0777 0.331848 14.1689 0.37016 14.2361 0.438355C14.3033 0.50655 14.3411 0.599042 14.3411 0.695485V3.16094C14.3411 3.18215 14.3494 3.2025 14.3642 3.21751C14.379 3.23251 14.3991 3.24094 14.42 3.24094H17.5679C18.0433 3.24094 18.4993 3.4325 18.8355 3.77347C19.1716 4.11444 19.3605 4.57691 19.3605 5.05912V14.1937C19.3605 14.2785 19.3272 14.3599 19.2681 14.4199C19.2089 14.4799 19.1287 14.5137 19.045 14.5137H11.8314C11.7477 14.5137 11.6675 14.4799 11.6083 14.4199C11.5492 14.3599 11.5159 14.2785 11.5159 14.1937C11.5124 14.172 11.5124 14.1499 11.5159 14.1282L12.4553 9.48094C12.4754 9.38719 12.4743 9.29003 12.4519 9.19679C12.4295 9.10356 12.3866 9.01665 12.3262 8.94276C12.2628 8.86436 12.1829 8.80145 12.0922 8.75868C12.0017 8.71585 11.9027 8.69425 11.8027 8.69549C11.7026 8.69549 11.6038 8.71912 11.5141 8.76458C11.4245 8.81003 11.3466 8.87599 11.2865 8.9573L4.08005 18.6228C4.00626 18.7142 3.96022 18.8254 3.94749 18.9429C3.93477 19.0604 3.9559 19.179 4.00834 19.2846C4.06217 19.3961 4.14585 19.4901 4.24983 19.5556C4.35381 19.6212 4.47388 19.6558 4.59633 19.6555H7.80874C7.89307 19.6555 7.97409 19.6889 8.0344 19.7487C8.0947 19.8086 8.12955 19.89 8.13142 19.9755C8.13142 19.9755 8.13142 20.0191 8.13142 20.0409L6.89808 26.0918C6.87795 26.1856 6.87911 26.2828 6.90147 26.376C6.92383 26.4692 6.96681 26.5561 7.02715 26.63C7.09055 26.7084 7.17051 26.7713 7.26112 26.8141C7.35169 26.8569 7.45064 26.8785 7.5506 26.8773C7.65142 26.8764 7.75059 26.8517 7.84022 26.8049C7.92992 26.7582 8.00751 26.6908 8.06688 26.6082L12.656 20.4628C12.685 20.4227 12.7227 20.39 12.7663 20.3673C12.8098 20.3445 12.858 20.3324 12.907 20.3318H19.045C19.1287 20.3318 19.2089 20.3656 19.2681 20.4256C19.3272 20.4856 19.3605 20.567 19.3605 20.6518V30.5137C19.3605 30.9958 19.1716 31.4583 18.8355 31.7993C18.4993 32.1403 18.0433 32.3318 17.5679 32.3318H1.79264Z" fill="#7352FF"/>
<path d="M36.804 12.5798C35.572 12.5798 34.628 12.9558 33.972 13.7078C33.316 14.4598 32.988 15.5238 32.988 16.8998C32.988 18.2918 33.348 19.3638 34.068 20.1158C34.804 20.8678 35.788 21.2438 37.02 21.2438C37.676 21.2438 38.228 21.1558 38.676 20.9798C39.14 20.8038 39.58 20.6038 39.996 20.3798C40.268 20.6038 40.476 20.8758 40.62 21.1958C40.78 21.4998 40.86 21.8598 40.86 22.2758C40.86 22.9318 40.492 23.4918 39.756 23.9558C39.036 24.4038 37.932 24.6278 36.444 24.6278C35.372 24.6278 34.364 24.4758 33.42 24.1719C32.476 23.8679 31.652 23.4038 30.948 22.7798C30.244 22.1398 29.684 21.3398 29.268 20.3798C28.868 19.4038 28.668 18.2438 28.668 16.8998C28.668 15.6518 28.86 14.5558 29.244 13.6118C29.644 12.6518 30.18 11.8438 30.852 11.1878C31.54 10.5318 32.34 10.0358 33.252 9.69985C34.164 9.36385 35.14 9.19585 36.18 9.19585C37.652 9.19585 38.788 9.43585 39.588 9.91585C40.404 10.3958 40.812 11.0118 40.812 11.7638C40.812 12.1798 40.708 12.5398 40.5 12.8438C40.292 13.1478 40.052 13.3878 39.78 13.5638C39.364 13.2918 38.916 13.0598 38.436 12.8678C37.972 12.6758 37.428 12.5798 36.804 12.5798Z" fill="#7352FF"/>
<path d="M54.3069 24.1719C54.1469 24.2198 53.8909 24.2678 53.5389 24.3158C53.2029 24.3638 52.8509 24.3878 52.4829 24.3878C52.1309 24.3878 51.8109 24.3638 51.5229 24.3158C51.2509 24.2678 51.0189 24.1719 50.8269 24.0279C50.6349 23.8839 50.4829 23.6918 50.3709 23.4518C50.2749 23.1958 50.2269 22.8678 50.2269 22.4678V17.1398C50.2269 16.4838 50.0589 16.0278 49.7229 15.7718C49.4029 15.4998 49.0029 15.3638 48.5229 15.3638C48.2029 15.3638 47.8989 15.4038 47.6109 15.4838C47.3229 15.5638 47.0909 15.6598 46.9149 15.7718V24.1719C46.7549 24.2198 46.4989 24.2678 46.1469 24.3158C45.8109 24.3638 45.4589 24.3878 45.0909 24.3878C44.7389 24.3878 44.4189 24.3638 44.1309 24.3158C43.8589 24.2678 43.6269 24.1719 43.4349 24.0279C43.2429 23.8839 43.0909 23.6918 42.9789 23.4518C42.8829 23.1958 42.8349 22.8678 42.8349 22.4678V8.54785C43.0109 8.51585 43.2669 8.47585 43.6029 8.42785C43.9549 8.36385 44.3069 8.33185 44.6589 8.33185C45.0109 8.33185 45.3229 8.35585 45.5949 8.40385C45.8829 8.45185 46.1229 8.54785 46.3149 8.69185C46.5069 8.83585 46.6509 9.03585 46.7469 9.29185C46.8589 9.53185 46.9149 9.85185 46.9149 10.2518V12.6038C47.1229 12.5238 47.4349 12.4358 47.8509 12.3398C48.2829 12.2278 48.7549 12.1718 49.2669 12.1718C50.8509 12.1718 52.0829 12.5718 52.9629 13.3718C53.8589 14.1558 54.3069 15.3318 54.3069 16.8998V24.1719Z" fill="#7352FF"/>
<path d="M68.898 18.3638C68.898 19.3558 68.746 20.2438 68.442 21.0278C68.138 21.7958 67.706 22.4439 67.146 22.9719C66.602 23.4999 65.946 23.8998 65.178 24.1719C64.41 24.4438 63.554 24.5798 62.61 24.5798C61.666 24.5798 60.81 24.4359 60.042 24.1479C59.274 23.8599 58.61 23.4518 58.05 22.9238C57.506 22.3798 57.082 21.7238 56.778 20.9558C56.474 20.1878 56.322 19.3238 56.322 18.3638C56.322 17.4198 56.474 16.5638 56.778 15.7958C57.082 15.0278 57.506 14.3798 58.05 13.8518C58.61 13.3078 59.274 12.8918 60.042 12.6038C60.81 12.3158 61.666 12.1718 62.61 12.1718C63.554 12.1718 64.41 12.3238 65.178 12.6278C65.946 12.9158 66.602 13.3318 67.146 13.8758C67.706 14.4038 68.138 15.0518 68.442 15.8198C68.746 16.5878 68.898 17.4358 68.898 18.3638ZM60.498 18.3638C60.498 19.3398 60.682 20.0918 61.05 20.6198C61.434 21.1318 61.962 21.3878 62.634 21.3878C63.306 21.3878 63.818 21.1238 64.17 20.5958C64.538 20.0678 64.722 19.3238 64.722 18.3638C64.722 17.4038 64.538 16.6678 64.17 16.1558C63.802 15.6278 63.282 15.3638 62.61 15.3638C61.938 15.3638 61.418 15.6278 61.05 16.1558C60.682 16.6678 60.498 17.4038 60.498 18.3638Z" fill="#7352FF"/>
<path d="M77.4645 15.3878C77.0645 15.3878 76.6805 15.4518 76.3125 15.5798C75.9605 15.7078 75.6485 15.8998 75.3765 16.1558C75.1205 16.3958 74.9125 16.6998 74.7525 17.0678C74.5925 17.4358 74.5125 17.8678 74.5125 18.3638C74.5125 19.3558 74.7925 20.0998 75.3525 20.5958C75.9285 21.0918 76.6245 21.3398 77.4405 21.3398C77.9205 21.3398 78.3365 21.2838 78.6885 21.1719C79.0405 21.0598 79.3525 20.9398 79.6245 20.8118C79.9445 21.0358 80.1845 21.2838 80.3445 21.5558C80.5045 21.8118 80.5845 22.1238 80.5845 22.4918C80.5845 23.1479 80.2725 23.6599 79.6485 24.0279C79.0245 24.3799 78.1605 24.5559 77.0565 24.5559C76.0485 24.5559 75.1365 24.4118 74.3205 24.1238C73.5045 23.8198 72.8005 23.4038 72.2085 22.8758C71.6325 22.3319 71.1845 21.6838 70.8645 20.9318C70.5445 20.1798 70.3845 19.3478 70.3845 18.4358C70.3845 17.3798 70.5525 16.4598 70.8885 15.6758C71.2405 14.8758 71.7125 14.2198 72.3045 13.7078C72.8965 13.1958 73.5765 12.8118 74.3445 12.5558C75.1285 12.2998 75.9525 12.1718 76.8165 12.1718C77.9685 12.1718 78.8565 12.3798 79.4805 12.7958C80.1045 13.2118 80.4165 13.7478 80.4165 14.4038C80.4165 14.7078 80.3445 14.9958 80.2005 15.2678C80.0565 15.5238 79.8885 15.7478 79.6965 15.9398C79.4245 15.8118 79.0965 15.6918 78.7125 15.5798C78.3285 15.4518 77.9125 15.3878 77.4645 15.3878Z" fill="#7352FF"/>
<path d="M94.3511 18.3638C94.3511 19.3558 94.1991 20.2438 93.8951 21.0278C93.5911 21.7958 93.1591 22.4439 92.5991 22.9719C92.0551 23.4999 91.3991 23.8998 90.6311 24.1719C89.8631 24.4438 89.0071 24.5798 88.0631 24.5798C87.1191 24.5798 86.2631 24.4359 85.4951 24.1479C84.7271 23.8599 84.0631 23.4518 83.5031 22.9238C82.9591 22.3798 82.5351 21.7238 82.2311 20.9558C81.9271 20.1878 81.7751 19.3238 81.7751 18.3638C81.7751 17.4198 81.9271 16.5638 82.2311 15.7958C82.5351 15.0278 82.9591 14.3798 83.5031 13.8518C84.0631 13.3078 84.7271 12.8918 85.4951 12.6038C86.2631 12.3158 87.1191 12.1718 88.0631 12.1718C89.0071 12.1718 89.8631 12.3238 90.6311 12.6278C91.3991 12.9158 92.0551 13.3318 92.5991 13.8758C93.1591 14.4038 93.5911 15.0518 93.8951 15.8198C94.1991 16.5878 94.3511 17.4358 94.3511 18.3638ZM85.9511 18.3638C85.9511 19.3398 86.1351 20.0918 86.5031 20.6198C86.8871 21.1318 87.4151 21.3878 88.0871 21.3878C88.7591 21.3878 89.2711 21.1238 89.6231 20.5958C89.9911 20.0678 90.1751 19.3238 90.1751 18.3638C90.1751 17.4038 89.9911 16.6678 89.6231 16.1558C89.2551 15.6278 88.7351 15.3638 88.0631 15.3638C87.3911 15.3638 86.8711 15.6278 86.5031 16.1558C86.1351 16.6678 85.9511 17.4038 85.9511 18.3638Z" fill="#7352FF"/>
<path d="M114.346 18.8198C114.346 19.6838 114.194 20.4758 113.89 21.1958C113.602 21.8998 113.178 22.5078 112.618 23.0198C112.058 23.5159 111.378 23.8998 110.578 24.1719C109.778 24.4438 108.874 24.5798 107.866 24.5798C106.858 24.5798 105.954 24.4438 105.154 24.1719C104.354 23.8998 103.674 23.5159 103.114 23.0198C102.554 22.5078 102.122 21.8998 101.818 21.1958C101.53 20.4758 101.386 19.6838 101.386 18.8198V9.65185C101.562 9.61985 101.842 9.57985 102.226 9.53185C102.61 9.46785 102.978 9.43585 103.33 9.43585C103.698 9.43585 104.018 9.46785 104.29 9.53185C104.578 9.57985 104.818 9.67585 105.01 9.81985C105.202 9.96385 105.346 10.1638 105.442 10.4198C105.538 10.6758 105.586 11.0118 105.586 11.4278V18.7478C105.586 19.5158 105.794 20.1158 106.21 20.5478C106.642 20.9798 107.194 21.1958 107.866 21.1958C108.554 21.1958 109.106 20.9798 109.522 20.5478C109.938 20.1158 110.146 19.5158 110.146 18.7478V9.65185C110.322 9.61985 110.602 9.57985 110.986 9.53185C111.37 9.46785 111.738 9.43585 112.09 9.43585C112.458 9.43585 112.778 9.46785 113.05 9.53185C113.338 9.57985 113.578 9.67585 113.77 9.81985C113.962 9.96385 114.106 10.1638 114.202 10.4198C114.298 10.6758 114.346 11.0118 114.346 11.4278V18.8198Z" fill="#7352FF"/>
<path d="M122.436 12.1718C123.396 12.1718 124.284 12.2998 125.1 12.5558C125.932 12.7958 126.644 13.1718 127.236 13.6838C127.828 14.1958 128.292 14.8438 128.628 15.6278C128.964 16.3958 129.132 17.3158 129.132 18.3878C129.132 19.4118 128.988 20.3078 128.7 21.0758C128.412 21.8438 128.004 22.4918 127.476 23.0198C126.948 23.5318 126.308 23.9158 125.556 24.1719C124.82 24.4279 123.996 24.5559 123.084 24.5559C122.396 24.5559 121.756 24.4518 121.164 24.2438V28.2278C121.004 28.2759 120.748 28.3238 120.396 28.3718C120.044 28.4359 119.684 28.4678 119.316 28.4678C118.964 28.4678 118.644 28.4438 118.356 28.3958C118.084 28.3478 117.852 28.2519 117.66 28.1078C117.468 27.9639 117.324 27.7639 117.228 27.5079C117.132 27.2679 117.084 26.9478 117.084 26.5478V15.0278C117.084 14.5958 117.172 14.2438 117.348 13.9718C117.54 13.6998 117.796 13.4518 118.116 13.2278C118.612 12.9078 119.228 12.6518 119.964 12.4598C120.7 12.2678 121.524 12.1718 122.436 12.1718ZM122.484 21.3398C124.132 21.3398 124.956 20.3558 124.956 18.3878C124.956 17.3638 124.748 16.6038 124.332 16.1078C123.932 15.6118 123.348 15.3638 122.58 15.3638C122.276 15.3638 122.004 15.4038 121.764 15.4838C121.524 15.5478 121.316 15.6278 121.14 15.7238V21.0038C121.332 21.0998 121.54 21.1798 121.764 21.2438C121.988 21.3078 122.228 21.3398 122.484 21.3398Z" fill="#7352FF"/>
</svg>
