<svg width="142" height="35" viewBox="0 0 142 35" fill="none" xmlns="http://www.w3.org/2000/svg">
<path d="M1.9607 35C1.44069 35 0.941975 34.7905 0.574276 34.4176C0.206573 34.0446 0 33.5387 0 33.0114V5.17045C0 4.64304 0.206573 4.13722 0.574276 3.76427C0.941975 3.39133 1.44069 3.18182 1.9607 3.18182H5.40369C5.42657 3.18182 5.44851 3.1726 5.46469 3.15619C5.48087 3.13978 5.48996 3.11752 5.48996 3.09432V0.397727C5.48996 0.292244 5.53128 0.19108 5.60482 0.116492C5.67835 0.0419033 5.7781 0 5.8821 0H15.2935C15.3975 0 15.4972 0.0419033 15.5708 0.116492C15.6443 0.19108 15.6856 0.292244 15.6856 0.397727V3.09432C15.6856 3.11752 15.6947 3.13978 15.7109 3.15619C15.727 3.1726 15.749 3.18182 15.7719 3.18182H19.2149C19.7348 3.18182 20.2336 3.39133 20.6013 3.76427C20.969 4.13722 21.1756 4.64304 21.1756 5.17045V15.1614C21.1756 15.2542 21.1392 15.3432 21.0745 15.4088C21.0098 15.4745 20.922 15.5114 20.8305 15.5114H12.9406C12.8491 15.5114 12.7613 15.4745 12.6966 15.4088C12.6319 15.3432 12.5955 15.2542 12.5955 15.1614C12.5917 15.1377 12.5917 15.1135 12.5955 15.0898L13.6229 10.0068C13.645 9.90428 13.6437 9.79801 13.6193 9.69603C13.5948 9.59406 13.5478 9.499 13.4818 9.41818C13.4124 9.33243 13.325 9.26363 13.2259 9.21685C13.1268 9.17 13.0186 9.14638 12.9092 9.14773C12.7997 9.14773 12.6916 9.17358 12.5936 9.2233C12.4955 9.27301 12.4103 9.34516 12.3446 9.43409L4.46255 20.0057C4.38185 20.1058 4.33149 20.2274 4.31757 20.3558C4.30365 20.4843 4.32677 20.6141 4.38413 20.7295C4.44299 20.8516 4.53453 20.9543 4.64825 21.026C4.76198 21.0978 4.89331 21.1356 5.02724 21.1352H8.54081C8.63304 21.1352 8.72167 21.1718 8.78762 21.2372C8.85358 21.3027 8.8917 21.3917 8.89374 21.4852C8.89374 21.4852 8.89374 21.533 8.89374 21.5568L7.54477 28.175C7.52276 28.2775 7.52402 28.3838 7.54848 28.4858C7.57294 28.5878 7.61995 28.6828 7.68594 28.7636C7.75529 28.8494 7.84275 28.9182 7.94185 28.965C8.04091 29.0118 8.14914 29.0354 8.25847 29.0341C8.36874 29.0331 8.4772 29.0061 8.57524 28.9549C8.67335 28.9039 8.75821 28.8301 8.82315 28.7398L13.8425 22.0182C13.8742 21.9744 13.9155 21.9386 13.9632 21.9137C14.0108 21.8888 14.0635 21.8756 14.117 21.875H20.8305C20.922 21.875 21.0098 21.9119 21.0745 21.9775C21.1392 22.0432 21.1756 22.1322 21.1756 22.225V33.0114C21.1756 33.5387 20.969 34.0446 20.6013 34.4176C20.2336 34.7905 19.7348 35 19.2149 35H1.9607Z" fill="white"/>
<path d="M40.2542 13.3962C38.9067 13.3962 37.8742 13.8075 37.1567 14.63C36.4392 15.4525 36.0805 16.6163 36.0805 18.1212C36.0805 19.6438 36.4742 20.8162 37.2617 21.6387C38.0667 22.4612 39.143 22.8725 40.4905 22.8725C41.208 22.8725 41.8117 22.7762 42.3017 22.5837C42.8092 22.3912 43.2905 22.1725 43.7455 21.9275C44.043 22.1725 44.2705 22.47 44.428 22.82C44.603 23.1525 44.6905 23.5462 44.6905 24.0012C44.6905 24.7187 44.288 25.3312 43.483 25.8387C42.6955 26.3288 41.488 26.5737 39.8605 26.5737C38.688 26.5737 37.5855 26.4075 36.553 26.075C35.5205 25.7425 34.6192 25.235 33.8492 24.5525C33.0792 23.8525 32.4667 22.9775 32.0117 21.9275C31.5742 20.86 31.3555 19.5912 31.3555 18.1212C31.3555 16.7562 31.5655 15.5575 31.9855 14.525C32.423 13.475 33.0092 12.5912 33.7442 11.8737C34.4967 11.1562 35.3717 10.6137 36.3692 10.2462C37.3667 9.87875 38.4342 9.695 39.5717 9.695C41.1817 9.695 42.4242 9.9575 43.2992 10.4825C44.1917 11.0075 44.638 11.6812 44.638 12.5037C44.638 12.9587 44.5242 13.3525 44.2967 13.685C44.0692 14.0175 43.8067 14.28 43.5092 14.4725C43.0542 14.175 42.5642 13.9212 42.0392 13.7112C41.5317 13.5012 40.9367 13.3962 40.2542 13.3962Z" fill="white"/>
<path d="M59.3981 26.075C59.2231 26.1275 58.9431 26.18 58.5581 26.2325C58.1906 26.285 57.8056 26.3112 57.4031 26.3112C57.0181 26.3112 56.6681 26.285 56.3531 26.2325C56.0556 26.18 55.8018 26.075 55.5918 25.9175C55.3818 25.76 55.2156 25.55 55.0931 25.2875C54.9881 25.0075 54.9356 24.6487 54.9356 24.2112V18.3837C54.9356 17.6663 54.7518 17.1675 54.3843 16.8875C54.0343 16.59 53.5968 16.4412 53.0718 16.4412C52.7218 16.4412 52.3893 16.485 52.0743 16.5725C51.7593 16.66 51.5056 16.765 51.3131 16.8875V26.075C51.1381 26.1275 50.8581 26.18 50.4731 26.2325C50.1056 26.285 49.7206 26.3112 49.3181 26.3112C48.9331 26.3112 48.5831 26.285 48.2681 26.2325C47.9706 26.18 47.7168 26.075 47.5068 25.9175C47.2968 25.76 47.1306 25.55 47.0081 25.2875C46.9031 25.0075 46.8506 24.6487 46.8506 24.2112V8.98625C47.0431 8.95125 47.3231 8.9075 47.6906 8.855C48.0756 8.785 48.4606 8.75 48.8456 8.75C49.2306 8.75 49.5718 8.77625 49.8693 8.82875C50.1843 8.88125 50.4468 8.98625 50.6568 9.14375C50.8668 9.30125 51.0243 9.52 51.1293 9.8C51.2518 10.0625 51.3131 10.4125 51.3131 10.85V13.4225C51.5406 13.335 51.8818 13.2387 52.3368 13.1337C52.8093 13.0112 53.3256 12.95 53.8856 12.95C55.6181 12.95 56.9656 13.3875 57.9281 14.2625C58.9081 15.12 59.3981 16.4062 59.3981 18.1212V26.075Z" fill="white"/>
<path d="M75.357 19.7225C75.357 20.8075 75.1908 21.7787 74.8583 22.6362C74.5258 23.4762 74.0533 24.185 73.4408 24.7625C72.8458 25.34 72.1283 25.7775 71.2883 26.075C70.4483 26.3725 69.512 26.5212 68.4795 26.5212C67.447 26.5212 66.5108 26.3638 65.6708 26.0488C64.8308 25.7338 64.1045 25.2875 63.492 24.71C62.897 24.115 62.4333 23.3975 62.1008 22.5575C61.7683 21.7175 61.602 20.7725 61.602 19.7225C61.602 18.69 61.7683 17.7537 62.1008 16.9137C62.4333 16.0737 62.897 15.365 63.492 14.7875C64.1045 14.1925 64.8308 13.7375 65.6708 13.4225C66.5108 13.1075 67.447 12.95 68.4795 12.95C69.512 12.95 70.4483 13.1162 71.2883 13.4487C72.1283 13.7637 72.8458 14.2188 73.4408 14.8138C74.0533 15.3913 74.5258 16.1 74.8583 16.94C75.1908 17.78 75.357 18.7075 75.357 19.7225ZM66.1695 19.7225C66.1695 20.79 66.3708 21.6125 66.7733 22.19C67.1933 22.75 67.7708 23.03 68.5058 23.03C69.2408 23.03 69.8008 22.7412 70.1858 22.1637C70.5883 21.5862 70.7895 20.7725 70.7895 19.7225C70.7895 18.6725 70.5883 17.8675 70.1858 17.3075C69.7833 16.73 69.2145 16.4412 68.4795 16.4412C67.7445 16.4412 67.1758 16.73 66.7733 17.3075C66.3708 17.8675 66.1695 18.6725 66.1695 19.7225Z" fill="white"/>
<path d="M84.7266 16.4675C84.2891 16.4675 83.8691 16.5375 83.4666 16.6775C83.0816 16.8175 82.7404 17.0275 82.4429 17.3075C82.1629 17.57 81.9354 17.9025 81.7604 18.305C81.5854 18.7075 81.4979 19.18 81.4979 19.7225C81.4979 20.8075 81.8041 21.6212 82.4166 22.1637C83.0466 22.7062 83.8079 22.9775 84.7004 22.9775C85.2254 22.9775 85.6804 22.9163 86.0654 22.7938C86.4504 22.6713 86.7916 22.54 87.0891 22.4C87.4391 22.645 87.7016 22.9162 87.8766 23.2137C88.0516 23.4937 88.1391 23.835 88.1391 24.2375C88.1391 24.955 87.7979 25.515 87.1154 25.9175C86.4329 26.3025 85.4879 26.495 84.2804 26.495C83.1779 26.495 82.1804 26.3375 81.2879 26.0225C80.3954 25.69 79.6254 25.235 78.9779 24.6575C78.3479 24.0625 77.8579 23.3538 77.5079 22.5312C77.1579 21.7088 76.9829 20.7987 76.9829 19.8013C76.9829 18.6462 77.1666 17.64 77.5341 16.7825C77.9191 15.9075 78.4354 15.19 79.0829 14.63C79.7304 14.07 80.4741 13.65 81.3141 13.37C82.1716 13.09 83.0729 12.95 84.0179 12.95C85.2779 12.95 86.2491 13.1775 86.9316 13.6325C87.6141 14.0875 87.9554 14.6737 87.9554 15.3912C87.9554 15.7237 87.8766 16.0387 87.7191 16.3362C87.5616 16.6163 87.3779 16.8612 87.1679 17.0712C86.8704 16.9312 86.5116 16.8 86.0916 16.6775C85.6716 16.5375 85.2166 16.4675 84.7266 16.4675Z" fill="white"/>
<path d="M103.196 19.7225C103.196 20.8075 103.03 21.7787 102.698 22.6362C102.365 23.4762 101.893 24.185 101.28 24.7625C100.685 25.34 99.9676 25.7775 99.1276 26.075C98.2876 26.3725 97.3514 26.5212 96.3189 26.5212C95.2864 26.5212 94.3501 26.3638 93.5101 26.0488C92.6701 25.7338 91.9439 25.2875 91.3314 24.71C90.7364 24.115 90.2726 23.3975 89.9401 22.5575C89.6076 21.7175 89.4414 20.7725 89.4414 19.7225C89.4414 18.69 89.6076 17.7537 89.9401 16.9137C90.2726 16.0737 90.7364 15.365 91.3314 14.7875C91.9439 14.1925 92.6701 13.7375 93.5101 13.4225C94.3501 13.1075 95.2864 12.95 96.3189 12.95C97.3514 12.95 98.2876 13.1162 99.1276 13.4487C99.9676 13.7637 100.685 14.2188 101.28 14.8138C101.893 15.3913 102.365 16.1 102.698 16.94C103.03 17.78 103.196 18.7075 103.196 19.7225ZM94.0089 19.7225C94.0089 20.79 94.2101 21.6125 94.6126 22.19C95.0326 22.75 95.6101 23.03 96.3451 23.03C97.0801 23.03 97.6401 22.7412 98.0251 22.1637C98.4276 21.5862 98.6289 20.7725 98.6289 19.7225C98.6289 18.6725 98.4276 17.8675 98.0251 17.3075C97.6226 16.73 97.0539 16.4412 96.3189 16.4412C95.5839 16.4412 95.0151 16.73 94.6126 17.3075C94.2101 17.8675 94.0089 18.6725 94.0089 19.7225Z" fill="white"/>
<path d="M125.066 20.2212C125.066 21.1662 124.9 22.0325 124.567 22.82C124.252 23.59 123.789 24.255 123.176 24.815C122.564 25.3575 121.82 25.7775 120.945 26.075C120.07 26.3725 119.081 26.5212 117.979 26.5212C116.876 26.5212 115.887 26.3725 115.012 26.075C114.137 25.7775 113.394 25.3575 112.781 24.815C112.169 24.255 111.696 23.59 111.364 22.82C111.049 22.0325 110.891 21.1662 110.891 20.2212V10.1938C111.084 10.1587 111.39 10.115 111.81 10.0625C112.23 9.9925 112.632 9.9575 113.017 9.9575C113.42 9.9575 113.77 9.9925 114.067 10.0625C114.382 10.115 114.645 10.22 114.855 10.3775C115.065 10.535 115.222 10.7538 115.327 11.0338C115.432 11.3138 115.485 11.6812 115.485 12.1362V20.1425C115.485 20.9825 115.712 21.6388 116.167 22.1112C116.64 22.5838 117.244 22.82 117.979 22.82C118.731 22.82 119.335 22.5838 119.79 22.1112C120.245 21.6388 120.472 20.9825 120.472 20.1425V10.1938C120.665 10.1587 120.971 10.115 121.391 10.0625C121.811 9.9925 122.214 9.9575 122.599 9.9575C123.001 9.9575 123.351 9.9925 123.649 10.0625C123.964 10.115 124.226 10.22 124.436 10.3775C124.646 10.535 124.804 10.7538 124.909 11.0338C125.014 11.3138 125.066 11.6812 125.066 12.1362V20.2212Z" fill="white"/>
<path d="M133.914 12.95C134.964 12.95 135.935 13.09 136.828 13.37C137.738 13.6325 138.517 14.0437 139.164 14.6037C139.812 15.1637 140.319 15.8725 140.687 16.73C141.054 17.57 141.238 18.5763 141.238 19.7487C141.238 20.8687 141.08 21.8488 140.765 22.6888C140.45 23.5288 140.004 24.2375 139.427 24.815C138.849 25.375 138.149 25.795 137.327 26.075C136.522 26.355 135.62 26.495 134.623 26.495C133.87 26.495 133.17 26.3812 132.523 26.1537V30.5112C132.348 30.5637 132.068 30.6162 131.683 30.6687C131.298 30.7388 130.904 30.7738 130.502 30.7738C130.117 30.7738 129.767 30.7475 129.452 30.695C129.154 30.6425 128.9 30.5375 128.69 30.38C128.48 30.2225 128.323 30.0038 128.218 29.7238C128.113 29.4613 128.06 29.1112 128.06 28.6737V16.0737C128.06 15.6012 128.157 15.2162 128.349 14.9187C128.559 14.6212 128.839 14.35 129.189 14.105C129.732 13.755 130.405 13.475 131.21 13.265C132.015 13.055 132.917 12.95 133.914 12.95ZM133.967 22.9775C135.769 22.9775 136.67 21.9012 136.67 19.7487C136.67 18.6287 136.443 17.7975 135.988 17.255C135.55 16.7125 134.912 16.4412 134.072 16.4412C133.739 16.4412 133.442 16.485 133.179 16.5725C132.917 16.6425 132.689 16.73 132.497 16.835V22.61C132.707 22.715 132.934 22.8025 133.179 22.8725C133.424 22.9425 133.687 22.9775 133.967 22.9775Z" fill="white"/>
</svg>
